<mxfile host="app.diagrams.net" modified="2023-06-06T05:47:13.584Z" agent="Mozilla/5.0 (Windows NT 10.0; WOW64) AppleWebKit/537.36 (KHTML, like Gecko) Chrome/87.0.4280.66 Safari/537.36 SE 2.X MetaSr 1.0" etag="oyHt0LlYya8pRFb8DFgO" version="21.3.7" type="github">
  <diagram name="第 1 页" id="-DufWcOHiOKYzU5OmeVZ">
    <mxGraphModel dx="880" dy="429" grid="1" gridSize="10" guides="1" tooltips="1" connect="1" arrows="1" fold="1" page="1" pageScale="1" pageWidth="827" pageHeight="1169" math="0" shadow="0">
      <root>
        <mxCell id="0" />
        <mxCell id="1" parent="0" />
        <mxCell id="W0VJS3UuZu9aivnzx_T0-1" value="" style="rounded=1;whiteSpace=wrap;html=1;" vertex="1" parent="1">
          <mxGeometry x="30" y="30" width="790" height="420" as="geometry" />
        </mxCell>
      </root>
    </mxGraphModel>
  </diagram>
</mxfile>
